<mxfile host="app.diagrams.net" modified="2020-09-05T22:51:41.597Z" agent="5.0 (Windows NT 10.0; Win64; x64) AppleWebKit/537.36 (KHTML, like Gecko) Chrome/85.0.4183.83 Safari/537.36" etag="FrgUJ1t-CsDVT4Zqhy2C" version="13.6.6" type="github">
  <diagram id="i1JJFUQrd67SbUGbEXz5" name="Page-1">
    <mxGraphModel dx="1038" dy="580" grid="1" gridSize="10" guides="1" tooltips="1" connect="1" arrows="1" fold="1" page="1" pageScale="1" pageWidth="827" pageHeight="1169" math="0" shadow="0">
      <root>
        <mxCell id="0" />
        <mxCell id="1" parent="0" />
        <mxCell id="E72JfmNM8Qj0KH0K5PJZ-11" style="edgeStyle=orthogonalEdgeStyle;rounded=0;orthogonalLoop=1;jettySize=auto;html=1;exitX=0.5;exitY=1;exitDx=0;exitDy=0;entryX=0.5;entryY=0;entryDx=0;entryDy=0;" edge="1" parent="1" source="E72JfmNM8Qj0KH0K5PJZ-1" target="E72JfmNM8Qj0KH0K5PJZ-5">
          <mxGeometry relative="1" as="geometry" />
        </mxCell>
        <mxCell id="E72JfmNM8Qj0KH0K5PJZ-1" value="Nota 1" style="rounded=0;whiteSpace=wrap;html=1;" vertex="1" parent="1">
          <mxGeometry x="64" y="74" width="120" height="60" as="geometry" />
        </mxCell>
        <mxCell id="E72JfmNM8Qj0KH0K5PJZ-2" value="" style="ellipse;html=1;shape=endState;fillColor=#000000;strokeColor=#ff0000;" vertex="1" parent="1">
          <mxGeometry x="109" y="404" width="30" height="30" as="geometry" />
        </mxCell>
        <mxCell id="E72JfmNM8Qj0KH0K5PJZ-10" style="edgeStyle=orthogonalEdgeStyle;rounded=0;orthogonalLoop=1;jettySize=auto;html=1;entryX=0.5;entryY=0;entryDx=0;entryDy=0;" edge="1" parent="1" source="E72JfmNM8Qj0KH0K5PJZ-3" target="E72JfmNM8Qj0KH0K5PJZ-1">
          <mxGeometry relative="1" as="geometry" />
        </mxCell>
        <mxCell id="E72JfmNM8Qj0KH0K5PJZ-3" value="" style="ellipse;html=1;shape=startState;fillColor=#000000;strokeColor=#ff0000;" vertex="1" parent="1">
          <mxGeometry x="109" y="24" width="30" height="30" as="geometry" />
        </mxCell>
        <mxCell id="E72JfmNM8Qj0KH0K5PJZ-12" style="edgeStyle=orthogonalEdgeStyle;rounded=0;orthogonalLoop=1;jettySize=auto;html=1;exitX=0.5;exitY=1;exitDx=0;exitDy=0;entryX=0.5;entryY=0;entryDx=0;entryDy=0;" edge="1" parent="1" source="E72JfmNM8Qj0KH0K5PJZ-5" target="E72JfmNM8Qj0KH0K5PJZ-6">
          <mxGeometry relative="1" as="geometry" />
        </mxCell>
        <mxCell id="E72JfmNM8Qj0KH0K5PJZ-5" value="Nota 2" style="rounded=0;whiteSpace=wrap;html=1;" vertex="1" parent="1">
          <mxGeometry x="64" y="154" width="120" height="60" as="geometry" />
        </mxCell>
        <mxCell id="E72JfmNM8Qj0KH0K5PJZ-13" style="edgeStyle=orthogonalEdgeStyle;rounded=0;orthogonalLoop=1;jettySize=auto;html=1;entryX=0.5;entryY=0;entryDx=0;entryDy=0;" edge="1" parent="1" source="E72JfmNM8Qj0KH0K5PJZ-6" target="E72JfmNM8Qj0KH0K5PJZ-8">
          <mxGeometry relative="1" as="geometry" />
        </mxCell>
        <mxCell id="E72JfmNM8Qj0KH0K5PJZ-6" value="Soma (Nota 1 e Nota 2)" style="rounded=0;whiteSpace=wrap;html=1;" vertex="1" parent="1">
          <mxGeometry x="64" y="234" width="120" height="50" as="geometry" />
        </mxCell>
        <mxCell id="E72JfmNM8Qj0KH0K5PJZ-28" style="edgeStyle=orthogonalEdgeStyle;rounded=0;orthogonalLoop=1;jettySize=auto;html=1;entryX=0.5;entryY=0;entryDx=0;entryDy=0;" edge="1" parent="1" source="E72JfmNM8Qj0KH0K5PJZ-7" target="E72JfmNM8Qj0KH0K5PJZ-27">
          <mxGeometry relative="1" as="geometry">
            <mxPoint x="675" y="450" as="targetPoint" />
          </mxGeometry>
        </mxCell>
        <mxCell id="E72JfmNM8Qj0KH0K5PJZ-29" style="edgeStyle=orthogonalEdgeStyle;rounded=0;orthogonalLoop=1;jettySize=auto;html=1;entryX=0.5;entryY=0;entryDx=0;entryDy=0;" edge="1" parent="1" source="E72JfmNM8Qj0KH0K5PJZ-7" target="E72JfmNM8Qj0KH0K5PJZ-26">
          <mxGeometry relative="1" as="geometry" />
        </mxCell>
        <mxCell id="E72JfmNM8Qj0KH0K5PJZ-7" value="Decisão" style="rhombus;whiteSpace=wrap;html=1;" vertex="1" parent="1">
          <mxGeometry x="445" y="430" width="80" height="80" as="geometry" />
        </mxCell>
        <mxCell id="E72JfmNM8Qj0KH0K5PJZ-14" style="edgeStyle=orthogonalEdgeStyle;rounded=0;orthogonalLoop=1;jettySize=auto;html=1;entryX=0.5;entryY=0;entryDx=0;entryDy=0;" edge="1" parent="1" source="E72JfmNM8Qj0KH0K5PJZ-8" target="E72JfmNM8Qj0KH0K5PJZ-2">
          <mxGeometry relative="1" as="geometry" />
        </mxCell>
        <mxCell id="E72JfmNM8Qj0KH0K5PJZ-8" value="Divide resultado por 2" style="rounded=0;whiteSpace=wrap;html=1;" vertex="1" parent="1">
          <mxGeometry x="64" y="314" width="120" height="60" as="geometry" />
        </mxCell>
        <mxCell id="E72JfmNM8Qj0KH0K5PJZ-15" value="1&lt;br&gt;" style="text;html=1;align=center;verticalAlign=middle;resizable=0;points=[];autosize=1;" vertex="1" parent="1">
          <mxGeometry x="24" y="24" width="20" height="20" as="geometry" />
        </mxCell>
        <mxCell id="E72JfmNM8Qj0KH0K5PJZ-16" value="2&lt;br&gt;" style="text;html=1;align=center;verticalAlign=middle;resizable=0;points=[];autosize=1;" vertex="1" parent="1">
          <mxGeometry x="403" y="20" width="20" height="20" as="geometry" />
        </mxCell>
        <mxCell id="E72JfmNM8Qj0KH0K5PJZ-20" value="" style="ellipse;html=1;shape=startState;fillColor=#000000;strokeColor=#ff0000;" vertex="1" parent="1">
          <mxGeometry x="470" y="20" width="30" height="30" as="geometry" />
        </mxCell>
        <mxCell id="E72JfmNM8Qj0KH0K5PJZ-32" style="edgeStyle=orthogonalEdgeStyle;rounded=0;orthogonalLoop=1;jettySize=auto;html=1;entryX=0.5;entryY=0;entryDx=0;entryDy=0;" edge="1" parent="1" source="E72JfmNM8Qj0KH0K5PJZ-21" target="E72JfmNM8Qj0KH0K5PJZ-24">
          <mxGeometry relative="1" as="geometry" />
        </mxCell>
        <mxCell id="E72JfmNM8Qj0KH0K5PJZ-21" value="Nota 1" style="rounded=0;whiteSpace=wrap;html=1;" vertex="1" parent="1">
          <mxGeometry x="425" y="65" width="120" height="60" as="geometry" />
        </mxCell>
        <mxCell id="E72JfmNM8Qj0KH0K5PJZ-34" style="edgeStyle=orthogonalEdgeStyle;rounded=0;orthogonalLoop=1;jettySize=auto;html=1;entryX=0.5;entryY=0;entryDx=0;entryDy=0;" edge="1" parent="1" source="E72JfmNM8Qj0KH0K5PJZ-22" target="E72JfmNM8Qj0KH0K5PJZ-25">
          <mxGeometry relative="1" as="geometry" />
        </mxCell>
        <mxCell id="E72JfmNM8Qj0KH0K5PJZ-22" value="Soma&amp;nbsp; (N1 e N2)" style="rounded=0;whiteSpace=wrap;html=1;" vertex="1" parent="1">
          <mxGeometry x="425" y="245" width="120" height="60" as="geometry" />
        </mxCell>
        <mxCell id="E72JfmNM8Qj0KH0K5PJZ-33" style="edgeStyle=orthogonalEdgeStyle;rounded=0;orthogonalLoop=1;jettySize=auto;html=1;entryX=0.5;entryY=0;entryDx=0;entryDy=0;" edge="1" parent="1" source="E72JfmNM8Qj0KH0K5PJZ-24" target="E72JfmNM8Qj0KH0K5PJZ-22">
          <mxGeometry relative="1" as="geometry" />
        </mxCell>
        <mxCell id="E72JfmNM8Qj0KH0K5PJZ-24" value="Nota 2" style="rounded=0;whiteSpace=wrap;html=1;" vertex="1" parent="1">
          <mxGeometry x="425" y="155" width="120" height="60" as="geometry" />
        </mxCell>
        <mxCell id="E72JfmNM8Qj0KH0K5PJZ-35" style="edgeStyle=orthogonalEdgeStyle;rounded=0;orthogonalLoop=1;jettySize=auto;html=1;entryX=0.5;entryY=0;entryDx=0;entryDy=0;" edge="1" parent="1" source="E72JfmNM8Qj0KH0K5PJZ-25" target="E72JfmNM8Qj0KH0K5PJZ-7">
          <mxGeometry relative="1" as="geometry" />
        </mxCell>
        <mxCell id="E72JfmNM8Qj0KH0K5PJZ-25" value="Divide resultado por 2" style="rounded=0;whiteSpace=wrap;html=1;" vertex="1" parent="1">
          <mxGeometry x="425" y="345" width="120" height="60" as="geometry" />
        </mxCell>
        <mxCell id="E72JfmNM8Qj0KH0K5PJZ-26" value="#partiutentardenovo" style="rounded=0;whiteSpace=wrap;html=1;" vertex="1" parent="1">
          <mxGeometry x="289" y="515" width="120" height="60" as="geometry" />
        </mxCell>
        <mxCell id="E72JfmNM8Qj0KH0K5PJZ-27" value="#partiuestágio" style="rounded=0;whiteSpace=wrap;html=1;" vertex="1" parent="1">
          <mxGeometry x="595" y="515" width="120" height="60" as="geometry" />
        </mxCell>
        <mxCell id="E72JfmNM8Qj0KH0K5PJZ-30" value="Nota &amp;lt; 6" style="text;html=1;align=center;verticalAlign=middle;resizable=0;points=[];autosize=1;" vertex="1" parent="1">
          <mxGeometry x="348" y="440" width="60" height="20" as="geometry" />
        </mxCell>
        <mxCell id="E72JfmNM8Qj0KH0K5PJZ-31" value="nota&amp;gt;6" style="text;html=1;align=center;verticalAlign=middle;resizable=0;points=[];autosize=1;" vertex="1" parent="1">
          <mxGeometry x="575" y="440" width="50" height="20" as="geometry" />
        </mxCell>
        <mxCell id="E72JfmNM8Qj0KH0K5PJZ-74" style="edgeStyle=orthogonalEdgeStyle;rounded=0;orthogonalLoop=1;jettySize=auto;html=1;entryX=0.5;entryY=0;entryDx=0;entryDy=0;" edge="1" parent="1" source="E72JfmNM8Qj0KH0K5PJZ-38" target="E72JfmNM8Qj0KH0K5PJZ-71">
          <mxGeometry relative="1" as="geometry" />
        </mxCell>
        <mxCell id="E72JfmNM8Qj0KH0K5PJZ-38" value="Informe sexo e idade" style="rounded=0;whiteSpace=wrap;html=1;" vertex="1" parent="1">
          <mxGeometry x="325" y="750" width="120" height="60" as="geometry" />
        </mxCell>
        <mxCell id="E72JfmNM8Qj0KH0K5PJZ-63" style="edgeStyle=orthogonalEdgeStyle;rounded=0;orthogonalLoop=1;jettySize=auto;html=1;entryX=0.5;entryY=0;entryDx=0;entryDy=0;exitX=0;exitY=0.5;exitDx=0;exitDy=0;" edge="1" parent="1" source="E72JfmNM8Qj0KH0K5PJZ-39" target="E72JfmNM8Qj0KH0K5PJZ-45">
          <mxGeometry relative="1" as="geometry">
            <mxPoint x="244" y="880" as="targetPoint" />
          </mxGeometry>
        </mxCell>
        <mxCell id="E72JfmNM8Qj0KH0K5PJZ-68" style="edgeStyle=orthogonalEdgeStyle;rounded=0;orthogonalLoop=1;jettySize=auto;html=1;entryX=0.5;entryY=0;entryDx=0;entryDy=0;exitX=1;exitY=0.5;exitDx=0;exitDy=0;" edge="1" parent="1" source="E72JfmNM8Qj0KH0K5PJZ-39" target="E72JfmNM8Qj0KH0K5PJZ-46">
          <mxGeometry relative="1" as="geometry" />
        </mxCell>
        <mxCell id="E72JfmNM8Qj0KH0K5PJZ-39" value="Decisão" style="rhombus;whiteSpace=wrap;html=1;" vertex="1" parent="1">
          <mxGeometry x="143" y="920" width="80" height="80" as="geometry" />
        </mxCell>
        <mxCell id="E72JfmNM8Qj0KH0K5PJZ-41" value="" style="ellipse;html=1;shape=startState;fillColor=#000000;strokeColor=#ff0000;" vertex="1" parent="1">
          <mxGeometry x="370" y="690" width="30" height="30" as="geometry" />
        </mxCell>
        <mxCell id="E72JfmNM8Qj0KH0K5PJZ-42" value="Você é mulher menina" style="rounded=0;whiteSpace=wrap;html=1;" vertex="1" parent="1">
          <mxGeometry x="460" y="1020" width="120" height="60" as="geometry" />
        </mxCell>
        <mxCell id="E72JfmNM8Qj0KH0K5PJZ-43" value="3" style="text;html=1;align=center;verticalAlign=middle;resizable=0;points=[];autosize=1;" vertex="1" parent="1">
          <mxGeometry x="44" y="680" width="20" height="20" as="geometry" />
        </mxCell>
        <mxCell id="E72JfmNM8Qj0KH0K5PJZ-44" value="Você é mulher maior de idade" style="rounded=0;whiteSpace=wrap;html=1;" vertex="1" parent="1">
          <mxGeometry x="630" y="1020" width="120" height="60" as="geometry" />
        </mxCell>
        <mxCell id="E72JfmNM8Qj0KH0K5PJZ-45" value="Você é homem menino" style="rounded=0;whiteSpace=wrap;html=1;" vertex="1" parent="1">
          <mxGeometry x="44" y="1030" width="120" height="60" as="geometry" />
        </mxCell>
        <mxCell id="E72JfmNM8Qj0KH0K5PJZ-46" value="Você é homem maior de idade" style="rounded=0;whiteSpace=wrap;html=1;" vertex="1" parent="1">
          <mxGeometry x="195" y="1030" width="120" height="60" as="geometry" />
        </mxCell>
        <mxCell id="E72JfmNM8Qj0KH0K5PJZ-66" style="edgeStyle=orthogonalEdgeStyle;rounded=0;orthogonalLoop=1;jettySize=auto;html=1;entryX=0.5;entryY=0;entryDx=0;entryDy=0;exitX=0;exitY=0.5;exitDx=0;exitDy=0;" edge="1" parent="1" source="E72JfmNM8Qj0KH0K5PJZ-65" target="E72JfmNM8Qj0KH0K5PJZ-42">
          <mxGeometry relative="1" as="geometry">
            <mxPoint x="504" y="920" as="targetPoint" />
            <mxPoint x="584" y="970" as="sourcePoint" />
          </mxGeometry>
        </mxCell>
        <mxCell id="E72JfmNM8Qj0KH0K5PJZ-67" style="edgeStyle=orthogonalEdgeStyle;rounded=0;orthogonalLoop=1;jettySize=auto;html=1;entryX=0.5;entryY=0;entryDx=0;entryDy=0;exitX=1;exitY=0.5;exitDx=0;exitDy=0;" edge="1" parent="1" source="E72JfmNM8Qj0KH0K5PJZ-65" target="E72JfmNM8Qj0KH0K5PJZ-44">
          <mxGeometry relative="1" as="geometry" />
        </mxCell>
        <mxCell id="E72JfmNM8Qj0KH0K5PJZ-65" value="Decisão" style="rhombus;whiteSpace=wrap;html=1;" vertex="1" parent="1">
          <mxGeometry x="564" y="920" width="80" height="80" as="geometry" />
        </mxCell>
        <mxCell id="E72JfmNM8Qj0KH0K5PJZ-72" style="edgeStyle=orthogonalEdgeStyle;rounded=0;orthogonalLoop=1;jettySize=auto;html=1;entryX=0.5;entryY=0;entryDx=0;entryDy=0;" edge="1" parent="1" source="E72JfmNM8Qj0KH0K5PJZ-71" target="E72JfmNM8Qj0KH0K5PJZ-65">
          <mxGeometry relative="1" as="geometry" />
        </mxCell>
        <mxCell id="E72JfmNM8Qj0KH0K5PJZ-73" style="edgeStyle=orthogonalEdgeStyle;rounded=0;orthogonalLoop=1;jettySize=auto;html=1;entryX=0.5;entryY=0;entryDx=0;entryDy=0;" edge="1" parent="1" source="E72JfmNM8Qj0KH0K5PJZ-71" target="E72JfmNM8Qj0KH0K5PJZ-39">
          <mxGeometry relative="1" as="geometry" />
        </mxCell>
        <mxCell id="E72JfmNM8Qj0KH0K5PJZ-71" value="Guarde informação" style="rounded=0;whiteSpace=wrap;html=1;" vertex="1" parent="1">
          <mxGeometry x="325" y="860" width="120" height="60" as="geometry" />
        </mxCell>
        <mxCell id="E72JfmNM8Qj0KH0K5PJZ-75" value="" style="ellipse;html=1;shape=endState;fillColor=#000000;strokeColor=#ff0000;" vertex="1" parent="1">
          <mxGeometry x="399" y="1090" width="30" height="30" as="geometry" />
        </mxCell>
      </root>
    </mxGraphModel>
  </diagram>
</mxfile>
